<svg xmlns="http://www.w3.org/2000/svg" xmlns:xlink="http://www.w3.org/1999/xlink" viewBox="0 0 128.37 127.3"><defs><style>.cls-1{fill:url(#未命名漸層_58);}.cls-2{fill:url(#未命名漸層_64);}</style><linearGradient id="未命名漸層_58" x1="25.76" y1="25.76" x2="78.97" y2="78.97" gradientUnits="userSpaceOnUse"><stop offset="0" stop-color="#ec77ab"/><stop offset="1" stop-color="#7873f5"/></linearGradient><linearGradient id="未命名漸層_64" x1="90.81" y1="89.74" x2="116.11" y2="115.05" gradientUnits="userSpaceOnUse"><stop offset="0" stop-color="#2cd8d5"/><stop offset="1" stop-color="#8e37d7"/></linearGradient></defs><g id="圖層_2" data-name="圖層 2"><g id="圖層_1-2" data-name="圖層 1"><path class="cls-1" d="M54.24,1.31l9.45,25.55A24,24,0,0,0,77.87,41l25.55,9.46a2,2,0,0,1,0,3.75L77.87,63.69A24,24,0,0,0,63.69,77.87l-9.45,25.55a2,2,0,0,1-3.75,0L41,77.87A24,24,0,0,0,26.86,63.69L1.31,54.24a2,2,0,0,1,0-3.75L26.86,41A24,24,0,0,0,41,26.86L50.49,1.31A2,2,0,0,1,54.24,1.31Z"/><path class="cls-2" d="M104.35,78.11l4.5,12.15A11.44,11.44,0,0,0,115.59,97l12.16,4.49a1,1,0,0,1,0,1.79l-12.16,4.5a11.42,11.42,0,0,0-6.74,6.74l-4.5,12.15a1,1,0,0,1-1.78,0l-4.5-12.15a11.39,11.39,0,0,0-6.74-6.74l-12.15-4.5a1,1,0,0,1,0-1.79L91.33,97a11.41,11.41,0,0,0,6.74-6.75l4.5-12.15A1,1,0,0,1,104.35,78.11Z"/></g></g></svg>