<svg xmlns="http://www.w3.org/2000/svg" viewBox="0 0 18 11.99"><defs><style>.cls-1{fill:#f9fafa;}</style></defs><g id="圖層_2" data-name="圖層 2"><g id="圖層_1-2" data-name="圖層 1"><path class="cls-1" d="M0,9.9,1.78,8.57A1.87,1.87,0,0,0,3.39,9.73c.93,0,1.44-.48,1.44-2V.21H7.44V7.93C7.44,10.15,6.29,12,3.73,12A3.91,3.91,0,0,1,0,9.9Z"/><path class="cls-1" d="M9.36,10.32l1.5-1.8A4.6,4.6,0,0,0,13.7,9.73c1.09,0,1.63-.43,1.63-1.12s-.66-1-1.67-1.37l-1.5-.64A3.37,3.37,0,0,1,9.83,3.45C9.83,1.53,11.54,0,13.94,0a5.3,5.3,0,0,1,3.72,1.52L16.34,3.16a3.77,3.77,0,0,0-2.4-.9c-.9,0-1.47.37-1.47,1s.75,1,1.76,1.37l1.48.6A3.19,3.19,0,0,1,18,8.4C18,10.32,16.4,12,13.64,12A6.38,6.38,0,0,1,9.36,10.32Z"/></g></g></svg>